<svg xmlns="http://www.w3.org/2000/svg" xmlns:xlink="http://www.w3.org/1999/xlink" width="19" height="21" viewBox="0 0 19 21"><defs><path id="ogyya" d="M146.5 2537l9.5 5.25v10.5l-9.5 5.25-9.5-5.25v-10.5z"/><path id="ogyyb" d="M151.89 2547.87v1.57H151v-1.57h-1.52v-.89H151v-1.54h.89v1.54h1.52v.9h-1.52z"/><path id="ogyyc" d="M145 2549.51v-.63c0-.76.23-1.36.77-1.67-.52-.28-.77-.82-.77-1.6v-.26c0-1.28.7-2.01 1.95-2.01 1.27 0 1.96.73 1.96 2.01v.25c0 .79-.26 1.33-.77 1.61.54.31.77.9.77 1.67v.63c0 1.28-.7 2.01-1.96 2.01s-1.95-.73-1.95-2.01zm1.95-5.03c-.4 0-.7.2-.7.92v.45c0 .64.3.85.7.85.4 0 .7-.2.7-.85v-.45c0-.72-.3-.92-.7-.92zm0 3.35c-.44 0-.7.27-.7.9v.75c0 .7.3.9.7.9.4 0 .7-.2.7-.9v-.75c0-.63-.25-.9-.7-.9z"/><path id="ogyyd" d="M142.4 2545.33h-.97v-.9c.97 0 1.18-.46 1.37-1h.85v8h-1.25v-6.1z"/></defs><g><g transform="translate(-137 -2537)"><g><use fill="#fff" fill-opacity="0" stroke="#787a83" stroke-miterlimit="50" xlink:href="#ogyya"/></g><g><g><use fill="#787a83" xlink:href="#ogyyb"/></g><g><use fill="#787a83" xlink:href="#ogyyc"/></g><g><use fill="#787a83" xlink:href="#ogyyd"/></g></g></g></g></svg>