<svg xmlns="http://www.w3.org/2000/svg" xmlns:xlink="http://www.w3.org/1999/xlink" width="20" height="11" viewBox="0 0 20 11"><defs><path id="gw7la" d="M174.9 2354.93a10.1 10.1 0 0 0-2.06-2.34l-.03-.03c-.47-.42-.75-.7-.87-.83-.21-.27-.26-.54-.14-.82.08-.2.4-.64.93-1.31l.68-.85c1.2-1.54 1.72-2.53 1.56-2.96l-.06-.1c-.04-.06-.15-.11-.32-.16a1.7 1.7 0 0 0-.67-.03l-3 .02a.4.4 0 0 0-.2 0l-.14.04-.05.02-.05.03a.46.46 0 0 0-.11.1.68.68 0 0 0-.1.19 16.14 16.14 0 0 1-1.83 3.33 5.22 5.22 0 0 1-.93 1.02c-.12.09-.21.13-.27.11a7.9 7.9 0 0 1-.18-.04.68.68 0 0 1-.24-.24c-.06-.1-.1-.24-.12-.4a4.16 4.16 0 0 1-.03-.88l.01-.43a24.02 24.02 0 0 1 .05-1.53v-.55c0-.2 0-.35-.03-.46a1.52 1.52 0 0 0-.11-.32.55.55 0 0 0-.21-.24c-.1-.06-.21-.1-.35-.14a7.18 7.18 0 0 0-1.4-.13 7.07 7.07 0 0 0-2.5.24 1.4 1.4 0 0 0-.4.3c-.12.15-.13.23-.04.24.41.06.7.2.88.44l.06.12c.05.08.1.24.15.46a7.53 7.53 0 0 1-.15 3.27l-.12.22a.18.18 0 0 1-.05.05.8.8 0 0 1-.29.05.67.67 0 0 1-.35-.14c-.14-.1-.28-.22-.43-.39-.15-.16-.32-.39-.5-.68-.2-.3-.39-.65-.59-1.05l-.17-.29a24.7 24.7 0 0 1-.9-1.86.66.66 0 0 0-.25-.32l-.05-.03a1.14 1.14 0 0 0-.4-.15l-2.86.02c-.3 0-.5.07-.6.2l-.04.05a.31.31 0 0 0-.03.16c0 .08.02.17.06.28a32.62 32.62 0 0 0 3.74 6.36 22.36 22.36 0 0 0 1.03 1.21l.26.25a12.6 12.6 0 0 0 1.8 1.24 5.94 5.94 0 0 0 2.9.7h1.2c.24-.03.42-.1.55-.23l.04-.05c.03-.04.05-.1.08-.18a.99.99 0 0 0 .03-.28c0-.29.02-.55.07-.78a2 2 0 0 1 .18-.52 1.29 1.29 0 0 1 .4-.44.7.7 0 0 1 .08-.04c.17-.05.37 0 .6.16.22.16.43.35.63.58.2.23.43.5.71.78.28.29.52.5.73.64l.2.12c.15.08.33.16.55.22.22.07.41.09.58.05l2.67-.04c.26 0 .47-.04.61-.12.15-.09.23-.18.26-.28a.75.75 0 0 0 0-.34 1.22 1.22 0 0 0-.07-.27z"/></defs><g><g opacity=".6" transform="translate(-155 -2345)"><use fill="#787a83" xlink:href="#gw7la"/></g></g></svg>