<svg xmlns="http://www.w3.org/2000/svg" xmlns:xlink="http://www.w3.org/1999/xlink" width="14" height="13" viewBox="0 0 14 13"><defs><path id="jfs7a" d="M284 2345.54a5.2 5.2 0 0 1-1.65.52c.6-.41 1.05-1.05 1.26-1.82-.56.38-1.18.65-1.82.8a2.71 2.71 0 0 0-2.1-1.04c-1.58 0-2.87 1.47-2.87 3.28 0 .26.03.51.07.75a7.87 7.87 0 0 1-5.92-3.43 3.62 3.62 0 0 0 .9 4.38c-.46-.01-.9-.16-1.3-.4v.03c0 1.6.98 2.92 2.3 3.22-.43.13-.87.15-1.3.06.36 1.3 1.43 2.25 2.68 2.28a5.33 5.33 0 0 1-4.25 1.36 7.42 7.42 0 0 0 4.4 1.47c5.29 0 8.17-5 8.17-9.34v-.42a6.4 6.4 0 0 0 1.43-1.7z"/></defs><g><g opacity=".6" transform="translate(-270 -2344)"><use fill="#787a83" xlink:href="#jfs7a"/></g></g></svg>