<svg xmlns="http://www.w3.org/2000/svg" xmlns:xlink="http://www.w3.org/1999/xlink" width="95.28" height="24" viewBox="0 0 95.28 24"><defs><path id="yw2xa" d="M225.9 2201.12v2.8h3.12v11.14h3.13v-11.14h3.13v-2.8z"/><path id="yw2xb" d="M216.06 2201.12v13.96h8.02v-2.7h-5.13v-2.82h4.3v-2.65h-4.3v-2.98h5.11v-2.81z"/><path id="yw2xc" d="M185 2201.12v13.96h8.02v-2.7h-5.13v-2.82h4.3v-2.65h-4.3v-2.98H193v-2.81z"/><path id="yw2xd" d="M204.88 2215.06h2.76v-2.64h-2.76z"/><path id="yw2xe" d="M212.62 2207.27c.37-.63.6-1.38.6-2.15v-.46c0-2.06-1.64-3.55-3.78-3.55h-4.57v10.29h2.79v-1.82h3.22c.47 0 .78.43.78.87v1.18c0 .44-.31.8-.78.8h-2v2.63h1.76c2.14 0 3.62-1.77 3.62-3.84v-.91a3.7 3.7 0 0 0-1.64-3.04zm-2-1.2c0 .47-.43.85-.92.85h-2.03v-3h2.02c.42 0 .83.4.92.82l.02.11z"/><path id="yw2xf" d="M202.77 2215.12h-8.06v-2.64h5.42v-3.01h-5.42v-8.38h8.06v2.64h-5.42v3.1h5.42z"/><path id="yw2xg" d="M167.6 2200.2v16.2l-13.8 3.6v-24zm-1.76 6.44l-6.86-.48v-2.53l6.86.98v-3.08l-10.2-2.53v11.1l8.01-.31v2.23l-8 .83v4.15l10.2-2.14z"/><path id="yw2xh" d="M153.8 2196v24l-13.8-3.6v-16.2zm-9.78 10.75v-2.21l8.02-1.13v-4.16l-10.2 2.53v13.3l10.2 2.17v-4.15l-8.02-.84v-2.2l6.3.2v-3.98z"/></defs><g><g transform="translate(-140 -2196)"><g><g><use fill="#4b4f57" xlink:href="#yw2xa"/></g><g><use fill="#4b4f57" xlink:href="#yw2xb"/></g><g><use fill="#4b4f57" xlink:href="#yw2xc"/></g><g><use fill="#4b4f57" xlink:href="#yw2xd"/></g><g><g><use fill="#4b4f57" xlink:href="#yw2xe"/></g><g><use fill="#4b4f57" xlink:href="#yw2xf"/></g></g></g><g><g><use fill="#4b4f57" xlink:href="#yw2xg"/></g><g><use fill="#4b4f57" xlink:href="#yw2xh"/></g></g></g></g></svg>