<svg xmlns="http://www.w3.org/2000/svg" xmlns:xlink="http://www.w3.org/1999/xlink" width="14.82" height="14.82" viewBox="0 0 14.82 14.82"><defs><path id="49ika" d="M99.52 2343.09h7.96c1.9 0 3.43 1.54 3.43 3.43v7.96c0 1.9-1.54 3.43-3.43 3.43h-7.96a3.43 3.43 0 0 1-3.43-3.43v-7.96c0-1.9 1.54-3.43 3.43-3.43zm.06 7.4a3.92 3.92 0 1 0 7.83 0 3.92 3.92 0 0 0-7.83 0zm7.32-4.12a1.03 1.03 0 1 0 2.05 0 1.03 1.03 0 0 0-2.05 0zm-5.9 4.13a2.5 2.5 0 1 1 5 0 2.5 2.5 0 0 1-5 0z"/></defs><g><g opacity=".7" transform="translate(-96.09 -2343.09)"><use fill="#787a83" xlink:href="#49ika"/></g></g></svg>