<svg xmlns="http://www.w3.org/2000/svg" xmlns:xlink="http://www.w3.org/1999/xlink" width="17.85" height="21" viewBox="0 0 17.85 21"><defs><path id="jp3ha" d="M236.5 2551.65a13.63 13.63 0 0 0 1.15-4.46c.11-.78.15-1.58.15-2.98 0-1.6-.03-2.4-.11-3.3-1.9-1.2-4.53-1.86-7.76-1.86-3.24 0-5.87.67-7.77 1.85-.08.9-.11 1.71-.11 3.3 0 1.41.04 2.2.14 2.99a13.63 13.63 0 0 0 1.15 4.46zm-1.21 2.1h-10.7c1.26 1.7 3.02 3.1 5.35 4.2a12.7 12.7 0 0 0 5.35-4.2zm-5.36 5.25c-4.14-1.84-6.5-4.47-7.76-7.47a14.6 14.6 0 0 1-1.02-4.25c-.12-.87-.15-1.74-.15-3.1 0-1.72.03-2.58.15-3.68l.02-.24.23-.13c1.96-1.28 4.79-2.13 8.53-2.13 3.73 0 6.56.85 8.52 2.13l.23.13.02.24c.12 1.1.15 1.96.15 3.67 0 1.37-.03 2.24-.15 3.11a13.54 13.54 0 0 1-8.78 11.72zm-5.8-15.04l-.82.44.16-.92-.68-.66h.96l.39-.98.41.98h.93l-.67.66.16.92zm3.14 3.84l-1.02.54.2-1.15-.84-.81h1.18l.48-1.2.52 1.2h1.15l-.83.81.2 1.15-1.04-.54z"/></defs><g><g transform="translate(-221 -2538)"><use fill="#4b4f57" xlink:href="#jp3ha"/></g></g></svg>